<mxfile host="drawio-plugin" modified="2023-02-08T05:47:21.162Z" agent="5.0 (Windows NT 6.2; Win64; x64) AppleWebKit/537.36 (KHTML, like Gecko) Chrome/104.0.5112.102 Safari/537.36" etag="YgZ51d2llAXZctKyVGKn" version="20.5.3" type="embed" pages="3"><diagram id="6j6HT8XWUgoUy__9PKY0" name="high level view"><mxGraphModel dx="726" dy="747" grid="1" gridSize="10" guides="1" tooltips="1" connect="1" arrows="1" fold="1" page="1" pageScale="1" pageWidth="850" pageHeight="1100" math="0" shadow="0"><root><mxCell id="0"/><mxCell id="1" parent="0"/><mxCell id="A_Vqih1pHHU0WTFoezZH-3" style="edgeStyle=orthogonalEdgeStyle;rounded=0;orthogonalLoop=1;jettySize=auto;html=1;entryX=0.5;entryY=0;entryDx=0;entryDy=0;" parent="1" source="A_Vqih1pHHU0WTFoezZH-1" target="A_Vqih1pHHU0WTFoezZH-2" edge="1"><mxGeometry relative="1" as="geometry"/></mxCell><mxCell id="A_Vqih1pHHU0WTFoezZH-1" value="ProviderManager" style="rounded=0;whiteSpace=wrap;html=1;" parent="1" vertex="1"><mxGeometry x="310" y="70" width="160" height="110" as="geometry"/></mxCell><mxCell id="A_Vqih1pHHU0WTFoezZH-21" style="edgeStyle=orthogonalEdgeStyle;rounded=0;orthogonalLoop=1;jettySize=auto;html=1;" parent="1" source="A_Vqih1pHHU0WTFoezZH-2" target="A_Vqih1pHHU0WTFoezZH-19" edge="1"><mxGeometry relative="1" as="geometry"/></mxCell><mxCell id="A_Vqih1pHHU0WTFoezZH-22" style="edgeStyle=orthogonalEdgeStyle;rounded=0;orthogonalLoop=1;jettySize=auto;html=1;entryX=0.5;entryY=0;entryDx=0;entryDy=0;" parent="1" source="A_Vqih1pHHU0WTFoezZH-2" target="A_Vqih1pHHU0WTFoezZH-17" edge="1"><mxGeometry relative="1" as="geometry"/></mxCell><mxCell id="A_Vqih1pHHU0WTFoezZH-23" style="edgeStyle=orthogonalEdgeStyle;rounded=0;orthogonalLoop=1;jettySize=auto;html=1;entryX=0.5;entryY=0;entryDx=0;entryDy=0;" parent="1" source="A_Vqih1pHHU0WTFoezZH-2" target="A_Vqih1pHHU0WTFoezZH-20" edge="1"><mxGeometry relative="1" as="geometry"/></mxCell><mxCell id="A_Vqih1pHHU0WTFoezZH-2" value="AuthenticationProvider" style="rounded=0;whiteSpace=wrap;html=1;" parent="1" vertex="1"><mxGeometry x="310" y="270" width="160" height="60" as="geometry"/></mxCell><mxCell id="A_Vqih1pHHU0WTFoezZH-4" value="authenticate&lt;br&gt;&lt;span style=&quot;white-space: pre;&quot;&gt;&#9;&lt;/span&gt;- select authentication provider&lt;br&gt;&lt;span style=&quot;white-space: pre;&quot;&gt;&#9;&lt;/span&gt;- delegate to auth provider" style="text;html=1;strokeColor=none;fillColor=none;align=left;verticalAlign=middle;whiteSpace=wrap;rounded=0;" parent="1" vertex="1"><mxGeometry x="400" y="200" width="250" height="60" as="geometry"/></mxCell><mxCell id="A_Vqih1pHHU0WTFoezZH-14" style="edgeStyle=orthogonalEdgeStyle;rounded=0;orthogonalLoop=1;jettySize=auto;html=1;entryX=1;entryY=0.5;entryDx=0;entryDy=0;" parent="1" source="A_Vqih1pHHU0WTFoezZH-5" target="A_Vqih1pHHU0WTFoezZH-1" edge="1"><mxGeometry relative="1" as="geometry"/></mxCell><mxCell id="A_Vqih1pHHU0WTFoezZH-5" value="List&amp;lt;AuthenticationProvider&amp;gt;" style="rounded=0;whiteSpace=wrap;html=1;" parent="1" vertex="1"><mxGeometry x="520" y="95" width="220" height="60" as="geometry"/></mxCell><mxCell id="A_Vqih1pHHU0WTFoezZH-17" value="OAuth2LoginAuthenticationProvider" style="rounded=0;whiteSpace=wrap;html=1;" parent="1" vertex="1"><mxGeometry x="20" y="410" width="200" height="60" as="geometry"/></mxCell><mxCell id="A_Vqih1pHHU0WTFoezZH-19" value="OidcAuthorizationCodeAuthenticationProvider" style="rounded=0;whiteSpace=wrap;html=1;" parent="1" vertex="1"><mxGeometry x="242.5" y="410" width="295" height="60" as="geometry"/></mxCell><mxCell id="A_Vqih1pHHU0WTFoezZH-20" value="JwtAuthenticationProvider" style="rounded=0;whiteSpace=wrap;html=1;" parent="1" vertex="1"><mxGeometry x="560" y="410" width="250" height="60" as="geometry"/></mxCell></root></mxGraphModel></diagram><diagram id="izWVPOGFq0LAyMvvUtW0" name="OAuth2 login"><mxGraphModel dx="726" dy="-353" grid="1" gridSize="10" guides="1" tooltips="1" connect="1" arrows="1" fold="1" page="1" pageScale="1" pageWidth="850" pageHeight="1100" math="0" shadow="0"><root><mxCell id="0"/><mxCell id="1" parent="0"/><mxCell id="lc_uV2Pl30ErR_hPgcpX-1" value="" style="whiteSpace=wrap;html=1;" parent="1" vertex="1"><mxGeometry x="110" y="1390" width="20" height="470" as="geometry"/></mxCell><mxCell id="lc_uV2Pl30ErR_hPgcpX-2" value="&lt;span style=&quot;&quot;&gt;OAuth2LoginAuthenticationProvider&lt;/span&gt;" style="text;html=1;align=center;verticalAlign=middle;resizable=0;points=[];autosize=1;strokeColor=none;fillColor=none;" parent="1" vertex="1"><mxGeometry x="260" y="1350" width="210" height="30" as="geometry"/></mxCell><mxCell id="lc_uV2Pl30ErR_hPgcpX-3" value="" style="whiteSpace=wrap;html=1;" parent="1" vertex="1"><mxGeometry x="350" y="1390" width="20" height="470" as="geometry"/></mxCell><mxCell id="lc_uV2Pl30ErR_hPgcpX-4" value="" style="whiteSpace=wrap;html=1;" parent="1" vertex="1"><mxGeometry x="552.5" y="1390" width="20" height="470" as="geometry"/></mxCell><mxCell id="lc_uV2Pl30ErR_hPgcpX-5" value="&lt;span style=&quot;color: rgb(0, 0, 0); font-family: Helvetica; font-size: 12px; font-style: normal; font-variant-ligatures: normal; font-variant-caps: normal; font-weight: 400; letter-spacing: normal; orphans: 2; text-align: center; text-indent: 0px; text-transform: none; widows: 2; word-spacing: 0px; -webkit-text-stroke-width: 0px; background-color: rgb(248, 249, 250); text-decoration-thickness: initial; text-decoration-style: initial; text-decoration-color: initial; float: none; display: inline !important;&quot;&gt;ProviderManager&lt;/span&gt;" style="text;whiteSpace=wrap;html=1;" parent="1" vertex="1"><mxGeometry x="70" y="1350" width="100" height="30" as="geometry"/></mxCell><mxCell id="lc_uV2Pl30ErR_hPgcpX-6" value="&lt;span style=&quot;&quot;&gt;DefaultOAuth2UserService&lt;/span&gt;" style="text;html=1;align=center;verticalAlign=middle;resizable=0;points=[];autosize=1;strokeColor=none;fillColor=none;" parent="1" vertex="1"><mxGeometry x="495" y="1350" width="170" height="30" as="geometry"/></mxCell><mxCell id="lc_uV2Pl30ErR_hPgcpX-7" value="" style="endArrow=classic;html=1;rounded=0;exitX=1;exitY=0.07;exitDx=0;exitDy=0;exitPerimeter=0;entryX=-0.05;entryY=0.072;entryDx=0;entryDy=0;entryPerimeter=0;" parent="1" source="lc_uV2Pl30ErR_hPgcpX-1" target="lc_uV2Pl30ErR_hPgcpX-3" edge="1"><mxGeometry width="50" height="50" relative="1" as="geometry"><mxPoint x="225" y="1460" as="sourcePoint"/><mxPoint x="390" y="1430" as="targetPoint"/></mxGeometry></mxCell><mxCell id="lc_uV2Pl30ErR_hPgcpX-8" value="authenticate from token" style="text;html=1;align=center;verticalAlign=middle;resizable=0;points=[];autosize=1;strokeColor=none;fillColor=none;" parent="1" vertex="1"><mxGeometry x="165" y="1385" width="150" height="30" as="geometry"/></mxCell><mxCell id="lc_uV2Pl30ErR_hPgcpX-9" value="" style="edgeStyle=orthogonalEdgeStyle;html=1;align=left;spacingLeft=2;endArrow=block;rounded=0;exitX=1.001;exitY=0.174;exitDx=0;exitDy=0;exitPerimeter=0;entryX=1;entryY=0.234;entryDx=0;entryDy=0;entryPerimeter=0;" parent="1" source="lc_uV2Pl30ErR_hPgcpX-3" target="lc_uV2Pl30ErR_hPgcpX-1" edge="1"><mxGeometry relative="1" as="geometry"><mxPoint x="380" y="1470" as="sourcePoint"/><Array as="points"><mxPoint x="420" y="1472"/><mxPoint x="420" y="1500"/></Array><mxPoint x="380" y="1500" as="targetPoint"/></mxGeometry></mxCell><mxCell id="lc_uV2Pl30ErR_hPgcpX-10" value="if token scopes contains&lt;br&gt;&amp;nbsp;openid return null" style="text;html=1;align=center;verticalAlign=middle;resizable=0;points=[];autosize=1;strokeColor=none;fillColor=none;" parent="1" vertex="1"><mxGeometry x="365" y="1440" width="150" height="40" as="geometry"/></mxCell><mxCell id="lc_uV2Pl30ErR_hPgcpX-11" value="" style="endArrow=classic;html=1;rounded=0;exitX=0.958;exitY=0.395;exitDx=0;exitDy=0;exitPerimeter=0;entryX=-0.083;entryY=0.399;entryDx=0;entryDy=0;entryPerimeter=0;" parent="1" source="lc_uV2Pl30ErR_hPgcpX-3" target="lc_uV2Pl30ErR_hPgcpX-4" edge="1"><mxGeometry width="50" height="50" relative="1" as="geometry"><mxPoint x="410" y="1550" as="sourcePoint"/><mxPoint x="620" y="1590" as="targetPoint"/></mxGeometry></mxCell><mxCell id="lc_uV2Pl30ErR_hPgcpX-12" value="load user" style="text;html=1;align=center;verticalAlign=middle;resizable=0;points=[];autosize=1;strokeColor=none;fillColor=none;" parent="1" vertex="1"><mxGeometry x="467.5" y="1540" width="70" height="30" as="geometry"/></mxCell><mxCell id="lc_uV2Pl30ErR_hPgcpX-13" value="" style="whiteSpace=wrap;html=1;" parent="1" vertex="1"><mxGeometry x="740" y="1390" width="20" height="470" as="geometry"/></mxCell><mxCell id="lc_uV2Pl30ErR_hPgcpX-14" value="Auth server" style="text;html=1;align=center;verticalAlign=middle;resizable=0;points=[];autosize=1;strokeColor=none;fillColor=none;" parent="1" vertex="1"><mxGeometry x="710" y="1350" width="80" height="30" as="geometry"/></mxCell><mxCell id="lc_uV2Pl30ErR_hPgcpX-15" value="" style="endArrow=classic;html=1;rounded=0;exitX=1;exitY=0.5;exitDx=0;exitDy=0;entryX=0;entryY=0.5;entryDx=0;entryDy=0;" parent="1" source="lc_uV2Pl30ErR_hPgcpX-4" target="lc_uV2Pl30ErR_hPgcpX-13" edge="1"><mxGeometry width="50" height="50" relative="1" as="geometry"><mxPoint x="520.0000000000001" y="1610" as="sourcePoint"/><mxPoint x="701.68" y="1611.88" as="targetPoint"/></mxGeometry></mxCell><mxCell id="lc_uV2Pl30ErR_hPgcpX-16" value="call userinfo endpoint" style="text;html=1;align=center;verticalAlign=middle;resizable=0;points=[];autosize=1;strokeColor=none;fillColor=none;" parent="1" vertex="1"><mxGeometry x="590" y="1595" width="140" height="30" as="geometry"/></mxCell><mxCell id="lc_uV2Pl30ErR_hPgcpX-17" value="" style="endArrow=classic;html=1;rounded=0;exitX=0;exitY=0.581;exitDx=0;exitDy=0;exitPerimeter=0;entryX=1.025;entryY=0.583;entryDx=0;entryDy=0;entryPerimeter=0;" parent="1" source="lc_uV2Pl30ErR_hPgcpX-13" target="lc_uV2Pl30ErR_hPgcpX-4" edge="1"><mxGeometry width="50" height="50" relative="1" as="geometry"><mxPoint x="660" y="1700" as="sourcePoint"/><mxPoint x="710" y="1650" as="targetPoint"/></mxGeometry></mxCell><mxCell id="lc_uV2Pl30ErR_hPgcpX-18" value="returns user info" style="text;html=1;align=center;verticalAlign=middle;resizable=0;points=[];autosize=1;strokeColor=none;fillColor=none;" parent="1" vertex="1"><mxGeometry x="600" y="1670" width="110" height="30" as="geometry"/></mxCell><mxCell id="lc_uV2Pl30ErR_hPgcpX-19" value="" style="endArrow=classic;html=1;rounded=0;exitX=-0.035;exitY=0.663;exitDx=0;exitDy=0;exitPerimeter=0;" parent="1" source="lc_uV2Pl30ErR_hPgcpX-4" edge="1"><mxGeometry width="50" height="50" relative="1" as="geometry"><mxPoint x="540" y="1700" as="sourcePoint"/><mxPoint x="370" y="1701" as="targetPoint"/></mxGeometry></mxCell><mxCell id="lc_uV2Pl30ErR_hPgcpX-20" value="returns DefaultOauth2User" style="text;html=1;align=center;verticalAlign=middle;resizable=0;points=[];autosize=1;strokeColor=none;fillColor=none;" parent="1" vertex="1"><mxGeometry x="382.5" y="1710" width="170" height="30" as="geometry"/></mxCell><mxCell id="lc_uV2Pl30ErR_hPgcpX-21" value="" style="endArrow=classic;html=1;rounded=0;exitX=0;exitY=0.75;exitDx=0;exitDy=0;entryX=1;entryY=0.75;entryDx=0;entryDy=0;" parent="1" source="lc_uV2Pl30ErR_hPgcpX-3" target="lc_uV2Pl30ErR_hPgcpX-1" edge="1"><mxGeometry width="50" height="50" relative="1" as="geometry"><mxPoint x="660" y="1700" as="sourcePoint"/><mxPoint x="230" y="1720" as="targetPoint"/></mxGeometry></mxCell><mxCell id="lc_uV2Pl30ErR_hPgcpX-22" value="returns Authentication as&lt;br&gt;OAuth2LoginAuthenticationToken&lt;br&gt;" style="text;html=1;align=center;verticalAlign=middle;resizable=0;points=[];autosize=1;strokeColor=none;fillColor=none;" parent="1" vertex="1"><mxGeometry x="150" y="1750" width="200" height="40" as="geometry"/></mxCell></root></mxGraphModel></diagram><diagram id="FMT4_3S8iSdiPsdeExbg" name="OIDC login"><mxGraphModel dx="726" dy="-353" grid="1" gridSize="10" guides="1" tooltips="1" connect="1" arrows="1" fold="1" page="1" pageScale="1" pageWidth="850" pageHeight="1100" math="0" shadow="0"><root><mxCell id="0"/><mxCell id="1" parent="0"/><mxCell id="G1nn2TQR6ijODjtBxuAy-1" value="" style="whiteSpace=wrap;html=1;" parent="1" vertex="1"><mxGeometry x="110" y="1390" width="20" height="540" as="geometry"/></mxCell><mxCell id="G1nn2TQR6ijODjtBxuAy-2" value="&lt;span style=&quot;&quot;&gt;OidcAuthorizationCodeAuthenticationProvider&lt;/span&gt;" style="text;html=1;align=center;verticalAlign=middle;resizable=0;points=[];autosize=1;strokeColor=none;fillColor=none;" parent="1" vertex="1"><mxGeometry x="230" y="1350" width="270" height="30" as="geometry"/></mxCell><mxCell id="G1nn2TQR6ijODjtBxuAy-3" value="" style="whiteSpace=wrap;html=1;" parent="1" vertex="1"><mxGeometry x="350" y="1390" width="20" height="540" as="geometry"/></mxCell><mxCell id="G1nn2TQR6ijODjtBxuAy-4" value="" style="whiteSpace=wrap;html=1;" parent="1" vertex="1"><mxGeometry x="552.5" y="1390" width="20" height="540" as="geometry"/></mxCell><mxCell id="G1nn2TQR6ijODjtBxuAy-5" value="&lt;span style=&quot;color: rgb(0, 0, 0); font-family: Helvetica; font-size: 12px; font-style: normal; font-variant-ligatures: normal; font-variant-caps: normal; font-weight: 400; letter-spacing: normal; orphans: 2; text-align: center; text-indent: 0px; text-transform: none; widows: 2; word-spacing: 0px; -webkit-text-stroke-width: 0px; background-color: rgb(248, 249, 250); text-decoration-thickness: initial; text-decoration-style: initial; text-decoration-color: initial; float: none; display: inline !important;&quot;&gt;ProviderManager&lt;/span&gt;" style="text;whiteSpace=wrap;html=1;" parent="1" vertex="1"><mxGeometry x="70" y="1350" width="100" height="30" as="geometry"/></mxCell><mxCell id="G1nn2TQR6ijODjtBxuAy-6" value="&lt;span style=&quot;&quot;&gt;OidcUserService&lt;/span&gt;" style="text;html=1;align=center;verticalAlign=middle;resizable=0;points=[];autosize=1;strokeColor=none;fillColor=none;" parent="1" vertex="1"><mxGeometry x="525" y="1350" width="110" height="30" as="geometry"/></mxCell><mxCell id="G1nn2TQR6ijODjtBxuAy-7" value="" style="endArrow=classic;html=1;rounded=0;exitX=1.083;exitY=0.091;exitDx=0;exitDy=0;exitPerimeter=0;entryX=0;entryY=0.091;entryDx=0;entryDy=0;entryPerimeter=0;" parent="1" source="G1nn2TQR6ijODjtBxuAy-1" target="G1nn2TQR6ijODjtBxuAy-3" edge="1"><mxGeometry width="50" height="50" relative="1" as="geometry"><mxPoint x="225" y="1460" as="sourcePoint"/><mxPoint x="390" y="1430" as="targetPoint"/></mxGeometry></mxCell><mxCell id="G1nn2TQR6ijODjtBxuAy-8" value="authenticate from token" style="text;html=1;align=center;verticalAlign=middle;resizable=0;points=[];autosize=1;strokeColor=none;fillColor=none;" parent="1" vertex="1"><mxGeometry x="165" y="1385" width="150" height="30" as="geometry"/></mxCell><mxCell id="G1nn2TQR6ijODjtBxuAy-9" value="" style="edgeStyle=orthogonalEdgeStyle;html=1;align=left;spacingLeft=2;endArrow=block;rounded=0;exitX=1.001;exitY=0.174;exitDx=0;exitDy=0;exitPerimeter=0;" parent="1" source="G1nn2TQR6ijODjtBxuAy-3" edge="1"><mxGeometry relative="1" as="geometry"><mxPoint x="380" y="1470" as="sourcePoint"/><Array as="points"><mxPoint x="420" y="1472"/><mxPoint x="420" y="1500"/></Array><mxPoint x="130" y="1500" as="targetPoint"/></mxGeometry></mxCell><mxCell id="G1nn2TQR6ijODjtBxuAy-10" value="if token scopes does &lt;br&gt;not contain&lt;br&gt;&amp;nbsp;openid return null" style="text;html=1;align=center;verticalAlign=middle;resizable=0;points=[];autosize=1;strokeColor=none;fillColor=none;" parent="1" vertex="1"><mxGeometry x="370" y="1410" width="130" height="60" as="geometry"/></mxCell><mxCell id="G1nn2TQR6ijODjtBxuAy-11" value="" style="endArrow=classic;html=1;rounded=0;exitX=1.125;exitY=0.275;exitDx=0;exitDy=0;exitPerimeter=0;" parent="1" source="G1nn2TQR6ijODjtBxuAy-3" edge="1"><mxGeometry width="50" height="50" relative="1" as="geometry"><mxPoint x="410" y="1550" as="sourcePoint"/><mxPoint x="550" y="1540" as="targetPoint"/></mxGeometry></mxCell><mxCell id="G1nn2TQR6ijODjtBxuAy-12" value="load user" style="text;html=1;align=center;verticalAlign=middle;resizable=0;points=[];autosize=1;strokeColor=none;fillColor=none;" parent="1" vertex="1"><mxGeometry x="445" y="1510" width="70" height="30" as="geometry"/></mxCell><mxCell id="G1nn2TQR6ijODjtBxuAy-13" value="" style="whiteSpace=wrap;html=1;" parent="1" vertex="1"><mxGeometry x="820" y="1390" width="20" height="540" as="geometry"/></mxCell><mxCell id="G1nn2TQR6ijODjtBxuAy-14" value="Auth server" style="text;html=1;align=center;verticalAlign=middle;resizable=0;points=[];autosize=1;strokeColor=none;fillColor=none;" parent="1" vertex="1"><mxGeometry x="970" y="1340" width="80" height="30" as="geometry"/></mxCell><mxCell id="G1nn2TQR6ijODjtBxuAy-16" value="call userinfo endpoint" style="text;html=1;align=center;verticalAlign=middle;resizable=0;points=[];autosize=1;strokeColor=none;fillColor=none;" parent="1" vertex="1"><mxGeometry x="840" y="1640" width="140" height="30" as="geometry"/></mxCell><mxCell id="G1nn2TQR6ijODjtBxuAy-18" value="returns user info" style="text;html=1;align=center;verticalAlign=middle;resizable=0;points=[];autosize=1;strokeColor=none;fillColor=none;" parent="1" vertex="1"><mxGeometry x="860" y="1695" width="110" height="30" as="geometry"/></mxCell><mxCell id="G1nn2TQR6ijODjtBxuAy-20" value="returns DefaultOauth2User" style="text;html=1;align=center;verticalAlign=middle;resizable=0;points=[];autosize=1;strokeColor=none;fillColor=none;" parent="1" vertex="1"><mxGeometry x="600" y="1685" width="170" height="30" as="geometry"/></mxCell><mxCell id="G1nn2TQR6ijODjtBxuAy-22" value="returns Authentication as&lt;br&gt;OAuth2LoginAuthenticationToken&lt;br&gt;" style="text;html=1;align=center;verticalAlign=middle;resizable=0;points=[];autosize=1;strokeColor=none;fillColor=none;" parent="1" vertex="1"><mxGeometry x="140" y="1840" width="200" height="40" as="geometry"/></mxCell><mxCell id="G1nn2TQR6ijODjtBxuAy-23" value="" style="whiteSpace=wrap;html=1;" parent="1" vertex="1"><mxGeometry x="1000" y="1390" width="20" height="540" as="geometry"/></mxCell><mxCell id="-XI8DuoKvsho6HZ8nIyu-1" value="&lt;span style=&quot;color: rgb(0, 0, 0); font-family: Helvetica; font-size: 12px; font-style: normal; font-variant-ligatures: normal; font-variant-caps: normal; font-weight: 400; letter-spacing: normal; orphans: 2; text-align: center; text-indent: 0px; text-transform: none; widows: 2; word-spacing: 0px; -webkit-text-stroke-width: 0px; background-color: rgb(248, 249, 250); text-decoration-thickness: initial; text-decoration-style: initial; text-decoration-color: initial; float: none; display: inline !important;&quot;&gt;DefaultOAuth2UserService&lt;/span&gt;" style="text;whiteSpace=wrap;html=1;" parent="1" vertex="1"><mxGeometry x="740" y="1350" width="180" height="40" as="geometry"/></mxCell><mxCell id="-XI8DuoKvsho6HZ8nIyu-2" value="" style="edgeStyle=orthogonalEdgeStyle;html=1;align=left;spacingLeft=2;endArrow=block;rounded=0;" parent="1" edge="1"><mxGeometry relative="1" as="geometry"><mxPoint x="573" y="1566" as="sourcePoint"/><Array as="points"><mxPoint x="630" y="1566"/><mxPoint x="630" y="1600"/></Array><mxPoint x="372" y="1600" as="targetPoint"/></mxGeometry></mxCell><mxCell id="-XI8DuoKvsho6HZ8nIyu-3" value="if additional oidcscopes&lt;br&gt;(profile, email or address) &lt;br&gt;are not requested&lt;br&gt;do not delegate to&amp;nbsp;&lt;br&gt;&lt;span style=&quot;&quot;&gt;DefaultOAuth2UserService&lt;/span&gt;" style="text;html=1;align=center;verticalAlign=middle;resizable=0;points=[];autosize=1;strokeColor=none;fillColor=none;" parent="1" vertex="1"><mxGeometry x="600" y="1480" width="170" height="90" as="geometry"/></mxCell><mxCell id="-XI8DuoKvsho6HZ8nIyu-6" value="" style="endArrow=classic;html=1;rounded=0;entryX=-0.125;entryY=0.481;entryDx=0;entryDy=0;entryPerimeter=0;exitX=1.083;exitY=0.485;exitDx=0;exitDy=0;exitPerimeter=0;" parent="1" source="G1nn2TQR6ijODjtBxuAy-4" target="G1nn2TQR6ijODjtBxuAy-13" edge="1"><mxGeometry width="50" height="50" relative="1" as="geometry"><mxPoint x="580" y="1730" as="sourcePoint"/><mxPoint x="769.9999999999999" y="1731.88" as="targetPoint"/></mxGeometry></mxCell><mxCell id="-XI8DuoKvsho6HZ8nIyu-7" value="get OAuth2User" style="text;html=1;align=center;verticalAlign=middle;resizable=0;points=[];autosize=1;strokeColor=none;fillColor=none;" parent="1" vertex="1"><mxGeometry x="635" y="1610" width="110" height="30" as="geometry"/></mxCell><mxCell id="-XI8DuoKvsho6HZ8nIyu-9" value="" style="endArrow=classic;html=1;rounded=0;entryX=0.042;entryY=0.52;entryDx=0;entryDy=0;entryPerimeter=0;exitX=0.018;exitY=1.111;exitDx=0;exitDy=0;exitPerimeter=0;" parent="1" source="G1nn2TQR6ijODjtBxuAy-16" target="G1nn2TQR6ijODjtBxuAy-23" edge="1"><mxGeometry width="50" height="50" relative="1" as="geometry"><mxPoint x="859.9999999999999" y="1790" as="sourcePoint"/><mxPoint x="1106.6" y="1790.47" as="targetPoint"/></mxGeometry></mxCell><mxCell id="-XI8DuoKvsho6HZ8nIyu-10" value="" style="endArrow=classic;html=1;rounded=0;exitX=0;exitY=0.557;exitDx=0;exitDy=0;exitPerimeter=0;" parent="1" source="G1nn2TQR6ijODjtBxuAy-23" edge="1"><mxGeometry width="50" height="50" relative="1" as="geometry"><mxPoint x="970" y="1790" as="sourcePoint"/><mxPoint x="840" y="1693" as="targetPoint"/></mxGeometry></mxCell><mxCell id="-XI8DuoKvsho6HZ8nIyu-11" value="" style="endArrow=classic;html=1;rounded=0;exitX=-0.167;exitY=0.599;exitDx=0;exitDy=0;exitPerimeter=0;entryX=1;entryY=0.6;entryDx=0;entryDy=0;entryPerimeter=0;" parent="1" source="G1nn2TQR6ijODjtBxuAy-13" target="G1nn2TQR6ijODjtBxuAy-4" edge="1"><mxGeometry width="50" height="50" relative="1" as="geometry"><mxPoint x="559.9999999999999" y="1930" as="sourcePoint"/><mxPoint x="580" y="1710" as="targetPoint"/></mxGeometry></mxCell><mxCell id="-XI8DuoKvsho6HZ8nIyu-14" value="" style="edgeStyle=orthogonalEdgeStyle;html=1;align=left;spacingLeft=2;endArrow=block;rounded=0;exitX=1;exitY=0.716;exitDx=0;exitDy=0;exitPerimeter=0;entryX=0.958;entryY=0.767;entryDx=0;entryDy=0;entryPerimeter=0;" parent="1" source="G1nn2TQR6ijODjtBxuAy-4" target="G1nn2TQR6ijODjtBxuAy-4" edge="1"><mxGeometry relative="1" as="geometry"><mxPoint x="570" y="1770" as="sourcePoint"/><Array as="points"><mxPoint x="573" y="1770"/><mxPoint x="680" y="1770"/><mxPoint x="680" y="1804"/></Array><mxPoint x="660" y="1840" as="targetPoint"/></mxGeometry></mxCell><mxCell id="-XI8DuoKvsho6HZ8nIyu-15" value="mapDefaultOauth2User&lt;br&gt;to an OidcUser" style="text;html=1;align=center;verticalAlign=middle;resizable=0;points=[];autosize=1;strokeColor=none;fillColor=none;" parent="1" vertex="1"><mxGeometry x="570" y="1735" width="150" height="40" as="geometry"/></mxCell><mxCell id="HDtc1uJEE0o4KUhGxJC2-1" value="" style="endArrow=classic;html=1;rounded=0;entryX=1.042;entryY=0.85;entryDx=0;entryDy=0;entryPerimeter=0;" parent="1" target="G1nn2TQR6ijODjtBxuAy-3" edge="1"><mxGeometry width="50" height="50" relative="1" as="geometry"><mxPoint x="550" y="1850" as="sourcePoint"/><mxPoint x="390" y="1990" as="targetPoint"/></mxGeometry></mxCell><mxCell id="HDtc1uJEE0o4KUhGxJC2-2" value="returns OidcUser" style="text;html=1;align=center;verticalAlign=middle;resizable=0;points=[];autosize=1;strokeColor=none;fillColor=none;" parent="1" vertex="1"><mxGeometry x="405" y="1850" width="110" height="30" as="geometry"/></mxCell><mxCell id="HDtc1uJEE0o4KUhGxJC2-5" value="" style="endArrow=classic;html=1;rounded=0;entryX=1;entryY=0.923;entryDx=0;entryDy=0;entryPerimeter=0;exitX=-0.042;exitY=0.926;exitDx=0;exitDy=0;exitPerimeter=0;" parent="1" source="G1nn2TQR6ijODjtBxuAy-3" target="G1nn2TQR6ijODjtBxuAy-1" edge="1"><mxGeometry width="50" height="50" relative="1" as="geometry"><mxPoint x="318.75" y="1890" as="sourcePoint"/><mxPoint x="141.25" y="1890.16" as="targetPoint"/></mxGeometry></mxCell></root></mxGraphModel></diagram></mxfile>